<svg xmlns="http://www.w3.org/2000/svg" xmlns:xlink="http://www.w3.org/1999/xlink" version="1.1" id="Layer_1" x="0px" y="0px" width="100%" height="100%" style="enable-background:new 0 0 37 49;" xml:space="preserve"><g class="shape" style="-webkit-transform: translate(3px,0px) scale(0.653061,0.653061);-moz-transform: translate(3px,0px) scale(0.653061,0.653061);transform: translate(3px,0px) scale(0.653061,0.653061);"><g><path fill="#000000" d="M34,0H3C1.3,0,0,1.3,0,3v43c0,1.7,1.3,3,3,3h19c0.3,0,0.5-0.1,0.7-0.3l14-14c0.2-0.2,0.3-0.4,0.3-0.7h0V3    C37,1.3,35.7,0,34,0z M23,45.6V35h10.6L23,45.6z M35,33H22c-0.6,0-1,0.4-1,1v13H3c-0.6,0-1-0.4-1-1V3c0-0.6,0.4-1,1-1h31    c0.6,0,1,0.4,1,1V33z M15.8,15.3c1.3-1.3,2-3.1,2-4.9c0-1.9-0.7-3.6-2.1-5c-1.3-1.3-3.1-2-4.9-2c-1.9,0-3.6,0.7-4.9,2    c-1.3,1.3-2.1,3.1-2.1,5c0,1.9,0.7,3.6,2.1,5c1.3,1.3,3.1,2.1,4.9,2.1C12.7,17.3,14.4,16.6,15.8,15.3L15.1,16l5.7,5.7l1.4-1.4    l-5.7-5.7L15.8,15.3z M14.4,13.9c-0.9,0.9-2.2,1.5-3.5,1.5s-2.6-0.5-3.5-1.5c-0.9-0.9-1.5-2.2-1.5-3.5c0-1.3,0.5-2.6,1.5-3.5    c0.9-0.9,2.2-1.5,3.5-1.5c1.3,0,2.6,0.5,3.5,1.5s1.5,2.2,1.5,3.5C15.8,11.7,15.3,12.9,14.4,13.9z"></path></g></g><g></g></svg>