<svg xmlns="http://www.w3.org/2000/svg" xmlns:xlink="http://www.w3.org/1999/xlink" version="1.1" id="Layer_1" x="0px" y="0px" width="100%" height="100%" style="enable-background:new 0 0 49 53.1;" xml:space="preserve"><g class="shape" style="-webkit-transform: translate(1px,0px) scale(0.603774,0.603774);-moz-transform: translate(1px,0px) scale(0.603774,0.603774);transform: translate(1px,0px) scale(0.603774,0.603774);"><g xmlns:default="http://www.w3.org/2000/svg"><g><path fill="#000000" d="M46,21.1L46,21.1L46,21.1L24.5,0L3.1,21.1H3v0.1l-3,2.9h3v29h43v-29h3L46,21.1z M30,51.1H18v-17c0-0.6,0.4-1,1-1h10    c0.6,0,1,0.4,1,1V51.1z M44,51.1H32v-17c0-1.7-1.3-3-3-3H19c-1.7,0-3,1.3-3,3v17H5v-29L24.5,2.8L44,22.1V51.1z M17.3,18.6    c0,3.8,3.1,6.9,7,6.9c3.9,0,7-3.1,7-6.9c0-3.8-3.1-6.9-7-6.9C20.4,11.7,17.3,14.8,17.3,18.6z M29.3,18.6c0,2.7-2.2,4.9-5,4.9    s-5-2.2-5-4.9c0-2.7,2.2-4.9,5-4.9S29.3,15.9,29.3,18.6z"></path></g></g></g></svg>