<svg xmlns="http://www.w3.org/2000/svg" xmlns:xlink="http://www.w3.org/1999/xlink" version="1.1" id="Layer_1" x="0px" y="0px" width="100%" height="100%" style="enable-background:new 0 0 53 41;" xml:space="preserve"><g class="shape" style="-webkit-transform: translate(0px,3px) scale(0.603774,0.603774);-moz-transform: translate(0px,3px) scale(0.603774,0.603774);transform: translate(0px,3px) scale(0.603774,0.603774);"><g><path fill="#000000" d="M52,7H8C7.4,7,7,7.5,7,8v32c0,0.6,0.2,1,0.8,1h44.2c0.6,0,1-0.4,1-1V8C53,7.5,52.5,7,52,7z M51,39H9V9h42V39z M4.9,13.3    c0.1,0,0-1.5,0.1-2.3l-4,0.9c-0.6,0.1-1,0.7-0.9,1.3L4.9,32L5,22.2l-2.5-8.4C2.5,13.8,4.7,13.3,4.9,13.3z M47.1,2.3L47.8,5H50    l-1-4.2c-0.1-0.6-0.7-0.9-1.3-0.8L25,5h9.9L47.1,2.3z M35,28h12c0.6,0,1-0.4,1-1V17c0-0.5-0.4-1-1-1H35c-0.6,0-1,0.4-1,1v10    C34,27.6,34.4,28,35,28z M36,18h10v8H36V18z M12,18h18c0.6,0,1-0.4,1-1c0-0.6-0.4-1-1-1H12c-0.6,0-1,0.4-1,1    C11,17.6,11.4,18,12,18z M12,23h18c0.6,0,1-0.4,1-1c0-0.6-0.4-1-1-1H12c-0.6,0-1,0.4-1,1C11,22.6,11.4,23,12,23z M12,28h18    c0.6,0,1-0.4,1-1c0-0.5-0.4-1-1-1H12c-0.6,0-1,0.4-1,1C11,27.6,11.4,28,12,28z M47,31H12c-0.6,0-1,0.4-1,1c0,0.6,0.5,1,1,1h35    c0.6,0,1-0.4,1-1C48,31.4,47.5,31,47,31z"></path></g></g><g></g></svg>