<svg xmlns="http://www.w3.org/2000/svg" xmlns:xlink="http://www.w3.org/1999/xlink" version="1.1" id="Layer_1" x="0px" y="0px" width="100%" height="100%" style="enable-background:new 0 0 50 51;" xml:space="preserve"><g class="shape" style="-webkit-transform: translate(0px,0px) scale(0.627451,0.627451);-moz-transform: translate(0px,0px) scale(0.627451,0.627451);transform: translate(0px,0px) scale(0.627451,0.627451);"><g><path fill="#000000" class="st0" d="M19.7,7.7l-1.4-1.4l-8,8l1.4,1.4L19.7,7.7z M26.3,7.3l-15,15l1.4,1.4l15-15L26.3,7.3z M38,37l-2,2l12,12l2-2    L38,37z M35,6C27-2,14-2,6,6c-8,8-8,21,0,29c8,8,21,8,29,0C43,27,43,14,35,6z M33.6,33.6c-7.2,7.2-18.9,7.2-26.2,0    c-7.2-7.2-7.2-18.9,0-26.2c7.2-7.2,18.9-7.2,26.2,0C40.8,14.6,40.8,26.4,33.6,33.6z M25,18l1,2l5.7-6.3l-1.4-1.4L25,18z"></path></g></g><g></g></svg>